<mxfile host="app.diagrams.net" modified="2024-03-13T05:23:40.984Z" agent="Mozilla/5.0 (Windows NT 10.0; Win64; x64) AppleWebKit/537.36 (KHTML, like Gecko) Chrome/122.0.0.0 Safari/537.36" etag="HFyNuO_qTU3XNHwW0lDI" version="24.0.5" type="github">
  <diagram id="R2lEEEUBdFMjLlhIrx00" name="Page-1">
    <mxGraphModel dx="1964" dy="1700" grid="1" gridSize="10" guides="1" tooltips="1" connect="1" arrows="1" fold="1" page="1" pageScale="1" pageWidth="850" pageHeight="1100" math="0" shadow="0" extFonts="Permanent Marker^https://fonts.googleapis.com/css?family=Permanent+Marker">
      <root>
        <mxCell id="0" />
        <mxCell id="1" parent="0" />
        <mxCell id="NpE67uKgbvUCezic4lN5-1" value="" style="rounded=0;whiteSpace=wrap;html=1;" vertex="1" parent="1">
          <mxGeometry x="250" y="260" width="120" height="60" as="geometry" />
        </mxCell>
        <mxCell id="NpE67uKgbvUCezic4lN5-2" value="" style="ellipse;whiteSpace=wrap;html=1;" vertex="1" parent="1">
          <mxGeometry x="40" y="320" width="120" height="80" as="geometry" />
        </mxCell>
        <mxCell id="NpE67uKgbvUCezic4lN5-3" value="" style="ellipse;whiteSpace=wrap;html=1;" vertex="1" parent="1">
          <mxGeometry x="10" y="190" width="120" height="80" as="geometry" />
        </mxCell>
        <mxCell id="NpE67uKgbvUCezic4lN5-4" value="" style="ellipse;whiteSpace=wrap;html=1;" vertex="1" parent="1">
          <mxGeometry x="30" y="80" width="120" height="80" as="geometry" />
        </mxCell>
        <mxCell id="NpE67uKgbvUCezic4lN5-5" value="" style="ellipse;whiteSpace=wrap;html=1;" vertex="1" parent="1">
          <mxGeometry x="140" width="120" height="80" as="geometry" />
        </mxCell>
        <mxCell id="NpE67uKgbvUCezic4lN5-6" value="" style="ellipse;whiteSpace=wrap;html=1;" vertex="1" parent="1">
          <mxGeometry x="300" width="120" height="80" as="geometry" />
        </mxCell>
        <mxCell id="NpE67uKgbvUCezic4lN5-7" value="" style="ellipse;whiteSpace=wrap;html=1;" vertex="1" parent="1">
          <mxGeometry x="440" y="150" width="120" height="80" as="geometry" />
        </mxCell>
        <mxCell id="NpE67uKgbvUCezic4lN5-8" value="" style="ellipse;whiteSpace=wrap;html=1;" vertex="1" parent="1">
          <mxGeometry x="450" y="40" width="120" height="80" as="geometry" />
        </mxCell>
        <mxCell id="NpE67uKgbvUCezic4lN5-11" value="" style="endArrow=none;html=1;rounded=0;exitX=1;exitY=0;exitDx=0;exitDy=0;entryX=0;entryY=0.5;entryDx=0;entryDy=0;" edge="1" parent="1" source="NpE67uKgbvUCezic4lN5-1" target="NpE67uKgbvUCezic4lN5-7">
          <mxGeometry width="50" height="50" relative="1" as="geometry">
            <mxPoint x="400" y="240" as="sourcePoint" />
            <mxPoint x="430" y="200" as="targetPoint" />
          </mxGeometry>
        </mxCell>
        <mxCell id="NpE67uKgbvUCezic4lN5-13" value="" style="endArrow=none;html=1;rounded=0;exitX=0.5;exitY=1;exitDx=0;exitDy=0;entryX=0;entryY=0;entryDx=0;entryDy=0;" edge="1" parent="1" source="NpE67uKgbvUCezic4lN5-5" target="NpE67uKgbvUCezic4lN5-1">
          <mxGeometry width="50" height="50" relative="1" as="geometry">
            <mxPoint x="400" y="240" as="sourcePoint" />
            <mxPoint x="450" y="190" as="targetPoint" />
          </mxGeometry>
        </mxCell>
        <mxCell id="NpE67uKgbvUCezic4lN5-14" value="" style="endArrow=none;html=1;rounded=0;exitX=0.5;exitY=1;exitDx=0;exitDy=0;entryX=0.5;entryY=0;entryDx=0;entryDy=0;" edge="1" parent="1" source="NpE67uKgbvUCezic4lN5-6" target="NpE67uKgbvUCezic4lN5-1">
          <mxGeometry width="50" height="50" relative="1" as="geometry">
            <mxPoint x="400" y="240" as="sourcePoint" />
            <mxPoint x="450" y="190" as="targetPoint" />
          </mxGeometry>
        </mxCell>
        <mxCell id="NpE67uKgbvUCezic4lN5-15" value="" style="endArrow=none;html=1;rounded=0;entryX=0;entryY=0.5;entryDx=0;entryDy=0;exitX=0.75;exitY=0;exitDx=0;exitDy=0;" edge="1" parent="1" source="NpE67uKgbvUCezic4lN5-1" target="NpE67uKgbvUCezic4lN5-8">
          <mxGeometry width="50" height="50" relative="1" as="geometry">
            <mxPoint x="400" y="240" as="sourcePoint" />
            <mxPoint x="450" y="190" as="targetPoint" />
          </mxGeometry>
        </mxCell>
        <mxCell id="NpE67uKgbvUCezic4lN5-16" value="" style="endArrow=none;html=1;rounded=0;exitX=1;exitY=1;exitDx=0;exitDy=0;entryX=0;entryY=0.383;entryDx=0;entryDy=0;entryPerimeter=0;" edge="1" parent="1" source="NpE67uKgbvUCezic4lN5-4" target="NpE67uKgbvUCezic4lN5-1">
          <mxGeometry width="50" height="50" relative="1" as="geometry">
            <mxPoint x="400" y="240" as="sourcePoint" />
            <mxPoint x="450" y="190" as="targetPoint" />
          </mxGeometry>
        </mxCell>
        <mxCell id="NpE67uKgbvUCezic4lN5-17" value="" style="endArrow=none;html=1;rounded=0;exitX=1;exitY=0.5;exitDx=0;exitDy=0;entryX=0.017;entryY=0.617;entryDx=0;entryDy=0;entryPerimeter=0;" edge="1" parent="1" source="NpE67uKgbvUCezic4lN5-3" target="NpE67uKgbvUCezic4lN5-1">
          <mxGeometry width="50" height="50" relative="1" as="geometry">
            <mxPoint x="400" y="240" as="sourcePoint" />
            <mxPoint x="450" y="190" as="targetPoint" />
          </mxGeometry>
        </mxCell>
        <mxCell id="NpE67uKgbvUCezic4lN5-18" value="" style="endArrow=none;html=1;rounded=0;exitX=1;exitY=0.5;exitDx=0;exitDy=0;entryX=0;entryY=1;entryDx=0;entryDy=0;" edge="1" parent="1" source="NpE67uKgbvUCezic4lN5-2" target="NpE67uKgbvUCezic4lN5-1">
          <mxGeometry width="50" height="50" relative="1" as="geometry">
            <mxPoint x="400" y="240" as="sourcePoint" />
            <mxPoint x="450" y="190" as="targetPoint" />
          </mxGeometry>
        </mxCell>
        <mxCell id="NpE67uKgbvUCezic4lN5-19" value="" style="rhombus;whiteSpace=wrap;html=1;" vertex="1" parent="1">
          <mxGeometry x="620" y="250" width="80" height="80" as="geometry" />
        </mxCell>
        <mxCell id="NpE67uKgbvUCezic4lN5-20" value="" style="rhombus;whiteSpace=wrap;html=1;" vertex="1" parent="1">
          <mxGeometry x="340" y="400" width="170" height="120" as="geometry" />
        </mxCell>
        <mxCell id="NpE67uKgbvUCezic4lN5-21" value="" style="endArrow=none;html=1;rounded=0;exitX=0.75;exitY=1;exitDx=0;exitDy=0;entryX=0;entryY=0.5;entryDx=0;entryDy=0;" edge="1" parent="1" source="NpE67uKgbvUCezic4lN5-1" target="NpE67uKgbvUCezic4lN5-20">
          <mxGeometry width="50" height="50" relative="1" as="geometry">
            <mxPoint x="400" y="440" as="sourcePoint" />
            <mxPoint x="450" y="390" as="targetPoint" />
          </mxGeometry>
        </mxCell>
        <mxCell id="NpE67uKgbvUCezic4lN5-22" value="" style="endArrow=none;html=1;rounded=0;exitX=1;exitY=0.5;exitDx=0;exitDy=0;entryX=0;entryY=0.5;entryDx=0;entryDy=0;" edge="1" parent="1" source="NpE67uKgbvUCezic4lN5-1" target="NpE67uKgbvUCezic4lN5-19">
          <mxGeometry width="50" height="50" relative="1" as="geometry">
            <mxPoint x="400" y="440" as="sourcePoint" />
            <mxPoint x="450" y="390" as="targetPoint" />
          </mxGeometry>
        </mxCell>
        <mxCell id="NpE67uKgbvUCezic4lN5-23" value="" style="rounded=0;whiteSpace=wrap;html=1;" vertex="1" parent="1">
          <mxGeometry x="800" y="260" width="120" height="60" as="geometry" />
        </mxCell>
        <mxCell id="NpE67uKgbvUCezic4lN5-24" value="" style="endArrow=none;html=1;rounded=0;entryX=0;entryY=0.5;entryDx=0;entryDy=0;exitX=1;exitY=0.5;exitDx=0;exitDy=0;" edge="1" parent="1" source="NpE67uKgbvUCezic4lN5-19" target="NpE67uKgbvUCezic4lN5-23">
          <mxGeometry width="50" height="50" relative="1" as="geometry">
            <mxPoint x="680" y="340" as="sourcePoint" />
            <mxPoint x="730" y="290" as="targetPoint" />
          </mxGeometry>
        </mxCell>
        <mxCell id="NpE67uKgbvUCezic4lN5-25" value="" style="ellipse;whiteSpace=wrap;html=1;" vertex="1" parent="1">
          <mxGeometry x="770" y="10" width="120" height="80" as="geometry" />
        </mxCell>
        <mxCell id="NpE67uKgbvUCezic4lN5-26" value="" style="endArrow=none;html=1;rounded=0;entryX=0.5;entryY=1;entryDx=0;entryDy=0;exitX=0.5;exitY=0;exitDx=0;exitDy=0;" edge="1" parent="1" source="NpE67uKgbvUCezic4lN5-23" target="NpE67uKgbvUCezic4lN5-25">
          <mxGeometry width="50" height="50" relative="1" as="geometry">
            <mxPoint x="680" y="340" as="sourcePoint" />
            <mxPoint x="730" y="290" as="targetPoint" />
          </mxGeometry>
        </mxCell>
        <mxCell id="NpE67uKgbvUCezic4lN5-27" value="" style="rounded=0;whiteSpace=wrap;html=1;" vertex="1" parent="1">
          <mxGeometry x="1260" y="230" width="120" height="60" as="geometry" />
        </mxCell>
        <mxCell id="NpE67uKgbvUCezic4lN5-28" value="" style="endArrow=none;html=1;rounded=0;exitX=1;exitY=0.5;exitDx=0;exitDy=0;entryX=0;entryY=1;entryDx=0;entryDy=0;" edge="1" parent="1" source="NpE67uKgbvUCezic4lN5-23" target="NpE67uKgbvUCezic4lN5-27">
          <mxGeometry width="50" height="50" relative="1" as="geometry">
            <mxPoint x="1250" y="340" as="sourcePoint" />
            <mxPoint x="1300" y="290" as="targetPoint" />
          </mxGeometry>
        </mxCell>
        <mxCell id="NpE67uKgbvUCezic4lN5-29" value="" style="ellipse;whiteSpace=wrap;html=1;" vertex="1" parent="1">
          <mxGeometry x="940" y="-60" width="120" height="80" as="geometry" />
        </mxCell>
        <mxCell id="NpE67uKgbvUCezic4lN5-30" value="" style="ellipse;whiteSpace=wrap;html=1;" vertex="1" parent="1">
          <mxGeometry x="930" y="80" width="120" height="80" as="geometry" />
        </mxCell>
        <mxCell id="NpE67uKgbvUCezic4lN5-31" value="" style="endArrow=none;html=1;rounded=0;exitX=1;exitY=1;exitDx=0;exitDy=0;entryX=0;entryY=0.25;entryDx=0;entryDy=0;" edge="1" parent="1" source="NpE67uKgbvUCezic4lN5-30" target="NpE67uKgbvUCezic4lN5-27">
          <mxGeometry width="50" height="50" relative="1" as="geometry">
            <mxPoint x="1250" y="140" as="sourcePoint" />
            <mxPoint x="1300" y="90" as="targetPoint" />
          </mxGeometry>
        </mxCell>
        <mxCell id="NpE67uKgbvUCezic4lN5-32" value="" style="endArrow=none;html=1;rounded=0;exitX=0.5;exitY=1;exitDx=0;exitDy=0;entryX=0;entryY=0;entryDx=0;entryDy=0;" edge="1" parent="1" source="NpE67uKgbvUCezic4lN5-29" target="NpE67uKgbvUCezic4lN5-27">
          <mxGeometry width="50" height="50" relative="1" as="geometry">
            <mxPoint x="1250" y="140" as="sourcePoint" />
            <mxPoint x="1300" y="90" as="targetPoint" />
          </mxGeometry>
        </mxCell>
        <mxCell id="NpE67uKgbvUCezic4lN5-33" value="" style="ellipse;whiteSpace=wrap;html=1;" vertex="1" parent="1">
          <mxGeometry x="1300" y="-30" width="120" height="80" as="geometry" />
        </mxCell>
        <mxCell id="NpE67uKgbvUCezic4lN5-34" value="" style="ellipse;whiteSpace=wrap;html=1;" vertex="1" parent="1">
          <mxGeometry x="1470" y="-170" width="120" height="80" as="geometry" />
        </mxCell>
        <mxCell id="NpE67uKgbvUCezic4lN5-35" value="" style="ellipse;whiteSpace=wrap;html=1;" vertex="1" parent="1">
          <mxGeometry x="1300" y="-190" width="120" height="80" as="geometry" />
        </mxCell>
        <mxCell id="NpE67uKgbvUCezic4lN5-36" value="" style="ellipse;whiteSpace=wrap;html=1;" vertex="1" parent="1">
          <mxGeometry x="1540" y="-50" width="120" height="80" as="geometry" />
        </mxCell>
        <mxCell id="NpE67uKgbvUCezic4lN5-37" value="" style="endArrow=none;html=1;rounded=0;exitX=0.5;exitY=0;exitDx=0;exitDy=0;entryX=0.5;entryY=1;entryDx=0;entryDy=0;" edge="1" parent="1" source="NpE67uKgbvUCezic4lN5-50" target="NpE67uKgbvUCezic4lN5-27">
          <mxGeometry width="50" height="50" relative="1" as="geometry">
            <mxPoint x="1250" y="140" as="sourcePoint" />
            <mxPoint x="1300" y="90" as="targetPoint" />
          </mxGeometry>
        </mxCell>
        <mxCell id="NpE67uKgbvUCezic4lN5-38" value="" style="endArrow=none;html=1;rounded=0;entryX=0;entryY=0.5;entryDx=0;entryDy=0;exitX=1;exitY=0;exitDx=0;exitDy=0;" edge="1" parent="1" source="NpE67uKgbvUCezic4lN5-27" target="NpE67uKgbvUCezic4lN5-49">
          <mxGeometry width="50" height="50" relative="1" as="geometry">
            <mxPoint x="1250" y="140" as="sourcePoint" />
            <mxPoint x="1300" y="90" as="targetPoint" />
          </mxGeometry>
        </mxCell>
        <mxCell id="NpE67uKgbvUCezic4lN5-39" value="" style="endArrow=none;html=1;rounded=0;entryX=0;entryY=0;entryDx=0;entryDy=0;exitX=1;exitY=1;exitDx=0;exitDy=0;" edge="1" parent="1" source="NpE67uKgbvUCezic4lN5-49" target="NpE67uKgbvUCezic4lN5-46">
          <mxGeometry width="50" height="50" relative="1" as="geometry">
            <mxPoint x="1250" y="140" as="sourcePoint" />
            <mxPoint x="1300" y="90" as="targetPoint" />
          </mxGeometry>
        </mxCell>
        <mxCell id="NpE67uKgbvUCezic4lN5-40" value="" style="endArrow=none;html=1;rounded=0;entryX=0;entryY=0;entryDx=0;entryDy=0;exitX=1;exitY=0.5;exitDx=0;exitDy=0;" edge="1" parent="1" source="NpE67uKgbvUCezic4lN5-49" target="NpE67uKgbvUCezic4lN5-47">
          <mxGeometry width="50" height="50" relative="1" as="geometry">
            <mxPoint x="1250" y="140" as="sourcePoint" />
            <mxPoint x="1300" y="90" as="targetPoint" />
          </mxGeometry>
        </mxCell>
        <mxCell id="NpE67uKgbvUCezic4lN5-41" value="" style="endArrow=none;html=1;rounded=0;entryX=0;entryY=0.5;entryDx=0;entryDy=0;exitX=1;exitY=0;exitDx=0;exitDy=0;" edge="1" parent="1" source="NpE67uKgbvUCezic4lN5-49" target="NpE67uKgbvUCezic4lN5-48">
          <mxGeometry width="50" height="50" relative="1" as="geometry">
            <mxPoint x="1250" y="140" as="sourcePoint" />
            <mxPoint x="1300" y="90" as="targetPoint" />
          </mxGeometry>
        </mxCell>
        <mxCell id="NpE67uKgbvUCezic4lN5-42" value="" style="endArrow=none;html=1;rounded=0;entryX=0.5;entryY=1;entryDx=0;entryDy=0;exitX=0.75;exitY=0;exitDx=0;exitDy=0;" edge="1" parent="1" source="NpE67uKgbvUCezic4lN5-27" target="NpE67uKgbvUCezic4lN5-33">
          <mxGeometry width="50" height="50" relative="1" as="geometry">
            <mxPoint x="1250" y="140" as="sourcePoint" />
            <mxPoint x="1300" y="90" as="targetPoint" />
          </mxGeometry>
        </mxCell>
        <mxCell id="NpE67uKgbvUCezic4lN5-43" value="" style="endArrow=none;html=1;rounded=0;entryX=1;entryY=0.5;entryDx=0;entryDy=0;exitX=0;exitY=0.5;exitDx=0;exitDy=0;" edge="1" parent="1" source="NpE67uKgbvUCezic4lN5-36" target="NpE67uKgbvUCezic4lN5-33">
          <mxGeometry width="50" height="50" relative="1" as="geometry">
            <mxPoint x="1250" y="140" as="sourcePoint" />
            <mxPoint x="1300" y="90" as="targetPoint" />
          </mxGeometry>
        </mxCell>
        <mxCell id="NpE67uKgbvUCezic4lN5-44" value="" style="endArrow=none;html=1;rounded=0;entryX=1;entryY=0;entryDx=0;entryDy=0;exitX=0;exitY=1;exitDx=0;exitDy=0;" edge="1" parent="1" source="NpE67uKgbvUCezic4lN5-34" target="NpE67uKgbvUCezic4lN5-33">
          <mxGeometry width="50" height="50" relative="1" as="geometry">
            <mxPoint x="1250" y="140" as="sourcePoint" />
            <mxPoint x="1300" y="90" as="targetPoint" />
          </mxGeometry>
        </mxCell>
        <mxCell id="NpE67uKgbvUCezic4lN5-45" value="" style="endArrow=none;html=1;rounded=0;entryX=0.5;entryY=1;entryDx=0;entryDy=0;" edge="1" parent="1" source="NpE67uKgbvUCezic4lN5-33" target="NpE67uKgbvUCezic4lN5-35">
          <mxGeometry width="50" height="50" relative="1" as="geometry">
            <mxPoint x="1250" y="140" as="sourcePoint" />
            <mxPoint x="1300" y="90" as="targetPoint" />
          </mxGeometry>
        </mxCell>
        <mxCell id="NpE67uKgbvUCezic4lN5-46" value="" style="ellipse;whiteSpace=wrap;html=1;" vertex="1" parent="1">
          <mxGeometry x="1690" y="300" width="120" height="80" as="geometry" />
        </mxCell>
        <mxCell id="NpE67uKgbvUCezic4lN5-47" value="" style="ellipse;whiteSpace=wrap;html=1;" vertex="1" parent="1">
          <mxGeometry x="1670" y="150" width="120" height="80" as="geometry" />
        </mxCell>
        <mxCell id="NpE67uKgbvUCezic4lN5-48" value="" style="ellipse;whiteSpace=wrap;html=1;" vertex="1" parent="1">
          <mxGeometry x="1690" y="20" width="120" height="80" as="geometry" />
        </mxCell>
        <mxCell id="NpE67uKgbvUCezic4lN5-49" value="" style="ellipse;whiteSpace=wrap;html=1;" vertex="1" parent="1">
          <mxGeometry x="1470" y="130" width="120" height="80" as="geometry" />
        </mxCell>
        <mxCell id="NpE67uKgbvUCezic4lN5-50" value="" style="rounded=0;whiteSpace=wrap;html=1;" vertex="1" parent="1">
          <mxGeometry x="1260" y="510" width="120" height="60" as="geometry" />
        </mxCell>
        <mxCell id="NpE67uKgbvUCezic4lN5-51" value="" style="rhombus;whiteSpace=wrap;html=1;" vertex="1" parent="1">
          <mxGeometry x="1040" y="500" width="80" height="80" as="geometry" />
        </mxCell>
        <mxCell id="NpE67uKgbvUCezic4lN5-52" value="" style="endArrow=none;html=1;rounded=0;entryX=0;entryY=0.5;entryDx=0;entryDy=0;exitX=1;exitY=0.5;exitDx=0;exitDy=0;" edge="1" parent="1" source="NpE67uKgbvUCezic4lN5-51" target="NpE67uKgbvUCezic4lN5-50">
          <mxGeometry width="50" height="50" relative="1" as="geometry">
            <mxPoint x="860" y="340" as="sourcePoint" />
            <mxPoint x="910" y="290" as="targetPoint" />
          </mxGeometry>
        </mxCell>
        <mxCell id="NpE67uKgbvUCezic4lN5-53" value="" style="rounded=0;whiteSpace=wrap;html=1;" vertex="1" parent="1">
          <mxGeometry x="750" y="510" width="120" height="60" as="geometry" />
        </mxCell>
        <mxCell id="NpE67uKgbvUCezic4lN5-54" value="" style="endArrow=none;html=1;rounded=0;entryX=0;entryY=0.5;entryDx=0;entryDy=0;exitX=1;exitY=0.5;exitDx=0;exitDy=0;" edge="1" parent="1" source="NpE67uKgbvUCezic4lN5-53" target="NpE67uKgbvUCezic4lN5-51">
          <mxGeometry width="50" height="50" relative="1" as="geometry">
            <mxPoint x="860" y="340" as="sourcePoint" />
            <mxPoint x="910" y="290" as="targetPoint" />
          </mxGeometry>
        </mxCell>
        <mxCell id="NpE67uKgbvUCezic4lN5-55" value="" style="ellipse;whiteSpace=wrap;html=1;" vertex="1" parent="1">
          <mxGeometry x="850" y="770" width="120" height="80" as="geometry" />
        </mxCell>
        <mxCell id="NpE67uKgbvUCezic4lN5-56" value="" style="ellipse;whiteSpace=wrap;html=1;" vertex="1" parent="1">
          <mxGeometry x="660" y="760" width="140" height="80" as="geometry" />
        </mxCell>
        <mxCell id="NpE67uKgbvUCezic4lN5-57" value="" style="endArrow=none;html=1;rounded=0;exitX=0.75;exitY=1;exitDx=0;exitDy=0;entryX=0.5;entryY=0;entryDx=0;entryDy=0;" edge="1" parent="1" source="NpE67uKgbvUCezic4lN5-53" target="NpE67uKgbvUCezic4lN5-55">
          <mxGeometry width="50" height="50" relative="1" as="geometry">
            <mxPoint x="860" y="640" as="sourcePoint" />
            <mxPoint x="910" y="590" as="targetPoint" />
          </mxGeometry>
        </mxCell>
        <mxCell id="NpE67uKgbvUCezic4lN5-58" value="" style="endArrow=none;html=1;rounded=0;exitX=0.25;exitY=1;exitDx=0;exitDy=0;entryX=0.5;entryY=0;entryDx=0;entryDy=0;" edge="1" parent="1" source="NpE67uKgbvUCezic4lN5-53" target="NpE67uKgbvUCezic4lN5-56">
          <mxGeometry width="50" height="50" relative="1" as="geometry">
            <mxPoint x="860" y="640" as="sourcePoint" />
            <mxPoint x="910" y="590" as="targetPoint" />
          </mxGeometry>
        </mxCell>
        <mxCell id="NpE67uKgbvUCezic4lN5-59" value="" style="ellipse;whiteSpace=wrap;html=1;" vertex="1" parent="1">
          <mxGeometry x="970" y="670" width="120" height="80" as="geometry" />
        </mxCell>
        <mxCell id="NpE67uKgbvUCezic4lN5-60" value="" style="ellipse;whiteSpace=wrap;html=1;" vertex="1" parent="1">
          <mxGeometry x="560" y="650" width="120" height="80" as="geometry" />
        </mxCell>
        <mxCell id="NpE67uKgbvUCezic4lN5-61" value="" style="endArrow=none;html=1;rounded=0;entryX=1;entryY=1;entryDx=0;entryDy=0;exitX=0;exitY=0;exitDx=0;exitDy=0;" edge="1" parent="1" source="NpE67uKgbvUCezic4lN5-59" target="NpE67uKgbvUCezic4lN5-53">
          <mxGeometry width="50" height="50" relative="1" as="geometry">
            <mxPoint x="860" y="640" as="sourcePoint" />
            <mxPoint x="910" y="590" as="targetPoint" />
          </mxGeometry>
        </mxCell>
        <mxCell id="NpE67uKgbvUCezic4lN5-62" value="" style="endArrow=none;html=1;rounded=0;exitX=0;exitY=1;exitDx=0;exitDy=0;entryX=1;entryY=0;entryDx=0;entryDy=0;" edge="1" parent="1" source="NpE67uKgbvUCezic4lN5-53" target="NpE67uKgbvUCezic4lN5-60">
          <mxGeometry width="50" height="50" relative="1" as="geometry">
            <mxPoint x="860" y="640" as="sourcePoint" />
            <mxPoint x="910" y="590" as="targetPoint" />
          </mxGeometry>
        </mxCell>
        <mxCell id="NpE67uKgbvUCezic4lN5-63" value="" style="endArrow=none;html=1;rounded=0;exitX=1;exitY=0.5;exitDx=0;exitDy=0;" edge="1" parent="1" source="NpE67uKgbvUCezic4lN5-20">
          <mxGeometry width="50" height="50" relative="1" as="geometry">
            <mxPoint x="860" y="640" as="sourcePoint" />
            <mxPoint x="600" y="570" as="targetPoint" />
          </mxGeometry>
        </mxCell>
        <mxCell id="NpE67uKgbvUCezic4lN5-64" value="" style="rhombus;whiteSpace=wrap;html=1;" vertex="1" parent="1">
          <mxGeometry x="200" y="590" width="140" height="120" as="geometry" />
        </mxCell>
        <mxCell id="NpE67uKgbvUCezic4lN5-65" value="" style="endArrow=none;html=1;rounded=0;entryX=0;entryY=0.25;entryDx=0;entryDy=0;exitX=1;exitY=0.5;exitDx=0;exitDy=0;" edge="1" parent="1" source="NpE67uKgbvUCezic4lN5-64" target="NpE67uKgbvUCezic4lN5-53">
          <mxGeometry width="50" height="50" relative="1" as="geometry">
            <mxPoint x="410" y="640" as="sourcePoint" />
            <mxPoint x="660" y="490" as="targetPoint" />
          </mxGeometry>
        </mxCell>
        <mxCell id="NpE67uKgbvUCezic4lN5-66" value="" style="rounded=0;whiteSpace=wrap;html=1;" vertex="1" parent="1">
          <mxGeometry x="130" y="940" width="120" height="60" as="geometry" />
        </mxCell>
        <mxCell id="NpE67uKgbvUCezic4lN5-67" value="" style="endArrow=none;html=1;rounded=0;entryX=0;entryY=0.5;entryDx=0;entryDy=0;exitX=0.5;exitY=0;exitDx=0;exitDy=0;" edge="1" parent="1" source="NpE67uKgbvUCezic4lN5-66" target="NpE67uKgbvUCezic4lN5-64">
          <mxGeometry width="50" height="50" relative="1" as="geometry">
            <mxPoint x="380" y="840" as="sourcePoint" />
            <mxPoint x="430" y="790" as="targetPoint" />
          </mxGeometry>
        </mxCell>
        <mxCell id="NpE67uKgbvUCezic4lN5-71" value="" style="ellipse;whiteSpace=wrap;html=1;" vertex="1" parent="1">
          <mxGeometry x="380" y="1100" width="150" height="100" as="geometry" />
        </mxCell>
        <mxCell id="NpE67uKgbvUCezic4lN5-73" value="" style="ellipse;whiteSpace=wrap;html=1;" vertex="1" parent="1">
          <mxGeometry x="220" y="1160" width="120" height="80" as="geometry" />
        </mxCell>
        <mxCell id="NpE67uKgbvUCezic4lN5-74" value="" style="ellipse;whiteSpace=wrap;html=1;" vertex="1" parent="1">
          <mxGeometry x="10" y="1140" width="120" height="80" as="geometry" />
        </mxCell>
        <mxCell id="NpE67uKgbvUCezic4lN5-75" value="" style="ellipse;whiteSpace=wrap;html=1;" vertex="1" parent="1">
          <mxGeometry x="-150" y="940" width="120" height="80" as="geometry" />
        </mxCell>
        <mxCell id="NpE67uKgbvUCezic4lN5-77" value="" style="ellipse;whiteSpace=wrap;html=1;" vertex="1" parent="1">
          <mxGeometry x="-130" y="850" width="120" height="80" as="geometry" />
        </mxCell>
        <mxCell id="NpE67uKgbvUCezic4lN5-79" value="" style="endArrow=none;html=1;rounded=0;exitX=0.5;exitY=1;exitDx=0;exitDy=0;entryX=0.5;entryY=0;entryDx=0;entryDy=0;" edge="1" parent="1" source="NpE67uKgbvUCezic4lN5-66" target="NpE67uKgbvUCezic4lN5-73">
          <mxGeometry width="50" height="50" relative="1" as="geometry">
            <mxPoint x="380" y="940" as="sourcePoint" />
            <mxPoint x="430" y="890" as="targetPoint" />
          </mxGeometry>
        </mxCell>
        <mxCell id="NpE67uKgbvUCezic4lN5-80" value="" style="endArrow=none;html=1;rounded=0;exitX=0.25;exitY=1;exitDx=0;exitDy=0;entryX=0.5;entryY=0;entryDx=0;entryDy=0;" edge="1" parent="1" source="NpE67uKgbvUCezic4lN5-66" target="NpE67uKgbvUCezic4lN5-74">
          <mxGeometry width="50" height="50" relative="1" as="geometry">
            <mxPoint x="380" y="940" as="sourcePoint" />
            <mxPoint x="430" y="890" as="targetPoint" />
          </mxGeometry>
        </mxCell>
        <mxCell id="NpE67uKgbvUCezic4lN5-81" value="" style="endArrow=none;html=1;rounded=0;entryX=0;entryY=0.5;entryDx=0;entryDy=0;exitX=1;exitY=0.5;exitDx=0;exitDy=0;" edge="1" parent="1" source="NpE67uKgbvUCezic4lN5-75" target="NpE67uKgbvUCezic4lN5-66">
          <mxGeometry width="50" height="50" relative="1" as="geometry">
            <mxPoint x="380" y="940" as="sourcePoint" />
            <mxPoint x="430" y="890" as="targetPoint" />
          </mxGeometry>
        </mxCell>
        <mxCell id="NpE67uKgbvUCezic4lN5-82" value="" style="endArrow=none;html=1;rounded=0;exitX=0;exitY=0;exitDx=0;exitDy=0;entryX=1;entryY=0.5;entryDx=0;entryDy=0;" edge="1" parent="1" source="NpE67uKgbvUCezic4lN5-66" target="NpE67uKgbvUCezic4lN5-77">
          <mxGeometry width="50" height="50" relative="1" as="geometry">
            <mxPoint x="380" y="940" as="sourcePoint" />
            <mxPoint x="430" y="890" as="targetPoint" />
          </mxGeometry>
        </mxCell>
        <mxCell id="NpE67uKgbvUCezic4lN5-83" value="" style="endArrow=none;html=1;rounded=0;exitX=1;exitY=1;exitDx=0;exitDy=0;entryX=0;entryY=0;entryDx=0;entryDy=0;" edge="1" parent="1" source="NpE67uKgbvUCezic4lN5-66" target="NpE67uKgbvUCezic4lN5-71">
          <mxGeometry width="50" height="50" relative="1" as="geometry">
            <mxPoint x="380" y="940" as="sourcePoint" />
            <mxPoint x="430" y="890" as="targetPoint" />
          </mxGeometry>
        </mxCell>
        <mxCell id="NpE67uKgbvUCezic4lN5-84" value="" style="ellipse;whiteSpace=wrap;html=1;aspect=fixed;" vertex="1" parent="1">
          <mxGeometry x="380" y="1270" width="110" height="110" as="geometry" />
        </mxCell>
        <mxCell id="NpE67uKgbvUCezic4lN5-85" value="" style="ellipse;whiteSpace=wrap;html=1;aspect=fixed;" vertex="1" parent="1">
          <mxGeometry x="220" y="1330" width="100" height="100" as="geometry" />
        </mxCell>
        <mxCell id="NpE67uKgbvUCezic4lN5-86" value="" style="ellipse;whiteSpace=wrap;html=1;aspect=fixed;" vertex="1" parent="1">
          <mxGeometry x="20" y="1330" width="80" height="80" as="geometry" />
        </mxCell>
        <mxCell id="NpE67uKgbvUCezic4lN5-87" value="" style="ellipse;whiteSpace=wrap;html=1;aspect=fixed;" vertex="1" parent="1">
          <mxGeometry x="-140" y="1280" width="100" height="100" as="geometry" />
        </mxCell>
        <mxCell id="NpE67uKgbvUCezic4lN5-88" value="" style="ellipse;whiteSpace=wrap;html=1;aspect=fixed;" vertex="1" parent="1">
          <mxGeometry x="-180" y="1130" width="100" height="100" as="geometry" />
        </mxCell>
        <mxCell id="NpE67uKgbvUCezic4lN5-89" value="" style="endArrow=none;html=1;rounded=0;entryX=1;entryY=0.5;entryDx=0;entryDy=0;exitX=0;exitY=0;exitDx=0;exitDy=0;" edge="1" parent="1" source="NpE67uKgbvUCezic4lN5-84" target="NpE67uKgbvUCezic4lN5-73">
          <mxGeometry width="50" height="50" relative="1" as="geometry">
            <mxPoint x="380" y="1240" as="sourcePoint" />
            <mxPoint x="430" y="1190" as="targetPoint" />
          </mxGeometry>
        </mxCell>
        <mxCell id="NpE67uKgbvUCezic4lN5-90" value="" style="endArrow=none;html=1;rounded=0;exitX=0.5;exitY=1;exitDx=0;exitDy=0;entryX=0.5;entryY=0;entryDx=0;entryDy=0;" edge="1" parent="1" source="NpE67uKgbvUCezic4lN5-73" target="NpE67uKgbvUCezic4lN5-85">
          <mxGeometry width="50" height="50" relative="1" as="geometry">
            <mxPoint x="380" y="1240" as="sourcePoint" />
            <mxPoint x="430" y="1190" as="targetPoint" />
          </mxGeometry>
        </mxCell>
        <mxCell id="NpE67uKgbvUCezic4lN5-91" value="" style="endArrow=none;html=1;rounded=0;exitX=0.5;exitY=1;exitDx=0;exitDy=0;entryX=0.5;entryY=0;entryDx=0;entryDy=0;" edge="1" parent="1" source="NpE67uKgbvUCezic4lN5-74" target="NpE67uKgbvUCezic4lN5-86">
          <mxGeometry width="50" height="50" relative="1" as="geometry">
            <mxPoint x="380" y="1240" as="sourcePoint" />
            <mxPoint x="430" y="1190" as="targetPoint" />
          </mxGeometry>
        </mxCell>
        <mxCell id="NpE67uKgbvUCezic4lN5-92" value="" style="endArrow=none;html=1;rounded=0;exitX=0;exitY=1;exitDx=0;exitDy=0;entryX=0.5;entryY=0;entryDx=0;entryDy=0;" edge="1" parent="1" source="NpE67uKgbvUCezic4lN5-74" target="NpE67uKgbvUCezic4lN5-87">
          <mxGeometry width="50" height="50" relative="1" as="geometry">
            <mxPoint x="380" y="1240" as="sourcePoint" />
            <mxPoint x="430" y="1190" as="targetPoint" />
          </mxGeometry>
        </mxCell>
        <mxCell id="NpE67uKgbvUCezic4lN5-93" value="" style="endArrow=none;html=1;rounded=0;exitX=0;exitY=0.5;exitDx=0;exitDy=0;entryX=1;entryY=0;entryDx=0;entryDy=0;" edge="1" parent="1" source="NpE67uKgbvUCezic4lN5-74" target="NpE67uKgbvUCezic4lN5-88">
          <mxGeometry width="50" height="50" relative="1" as="geometry">
            <mxPoint x="380" y="1240" as="sourcePoint" />
            <mxPoint x="430" y="1190" as="targetPoint" />
          </mxGeometry>
        </mxCell>
        <mxCell id="NpE67uKgbvUCezic4lN5-95" value="" style="rhombus;whiteSpace=wrap;html=1;" vertex="1" parent="1">
          <mxGeometry x="620" y="960" width="110" height="90" as="geometry" />
        </mxCell>
        <mxCell id="NpE67uKgbvUCezic4lN5-96" value="" style="endArrow=none;html=1;rounded=0;exitX=1;exitY=0.5;exitDx=0;exitDy=0;entryX=0;entryY=0.5;entryDx=0;entryDy=0;" edge="1" parent="1" source="NpE67uKgbvUCezic4lN5-66" target="NpE67uKgbvUCezic4lN5-95">
          <mxGeometry width="50" height="50" relative="1" as="geometry">
            <mxPoint x="380" y="1040" as="sourcePoint" />
            <mxPoint x="430" y="990" as="targetPoint" />
          </mxGeometry>
        </mxCell>
        <mxCell id="NpE67uKgbvUCezic4lN5-97" value="" style="rounded=0;whiteSpace=wrap;html=1;" vertex="1" parent="1">
          <mxGeometry x="1000" y="960" width="140" height="80" as="geometry" />
        </mxCell>
        <mxCell id="NpE67uKgbvUCezic4lN5-98" value="" style="endArrow=none;html=1;rounded=0;exitX=1;exitY=0.5;exitDx=0;exitDy=0;entryX=0;entryY=0.5;entryDx=0;entryDy=0;" edge="1" parent="1" source="NpE67uKgbvUCezic4lN5-95" target="NpE67uKgbvUCezic4lN5-97">
          <mxGeometry width="50" height="50" relative="1" as="geometry">
            <mxPoint x="860" y="1140" as="sourcePoint" />
            <mxPoint x="910" y="1090" as="targetPoint" />
          </mxGeometry>
        </mxCell>
        <mxCell id="NpE67uKgbvUCezic4lN5-99" value="" style="ellipse;whiteSpace=wrap;html=1;" vertex="1" parent="1">
          <mxGeometry x="780" y="1070" width="150" height="90" as="geometry" />
        </mxCell>
        <mxCell id="NpE67uKgbvUCezic4lN5-100" value="" style="ellipse;whiteSpace=wrap;html=1;" vertex="1" parent="1">
          <mxGeometry x="1300" y="1020" width="180" height="90" as="geometry" />
        </mxCell>
        <mxCell id="NpE67uKgbvUCezic4lN5-101" value="" style="ellipse;whiteSpace=wrap;html=1;" vertex="1" parent="1">
          <mxGeometry x="1260" y="1140" width="120" height="80" as="geometry" />
        </mxCell>
        <mxCell id="NpE67uKgbvUCezic4lN5-102" value="" style="ellipse;whiteSpace=wrap;html=1;" vertex="1" parent="1">
          <mxGeometry x="1080" y="1200" width="120" height="80" as="geometry" />
        </mxCell>
        <mxCell id="NpE67uKgbvUCezic4lN5-103" value="" style="ellipse;whiteSpace=wrap;html=1;" vertex="1" parent="1">
          <mxGeometry x="890" y="1180" width="120" height="80" as="geometry" />
        </mxCell>
        <mxCell id="NpE67uKgbvUCezic4lN5-105" value="" style="endArrow=none;html=1;rounded=0;entryX=0.25;entryY=1;entryDx=0;entryDy=0;exitX=0.5;exitY=0;exitDx=0;exitDy=0;" edge="1" parent="1" source="NpE67uKgbvUCezic4lN5-103" target="NpE67uKgbvUCezic4lN5-97">
          <mxGeometry width="50" height="50" relative="1" as="geometry">
            <mxPoint x="860" y="1140" as="sourcePoint" />
            <mxPoint x="910" y="1090" as="targetPoint" />
          </mxGeometry>
        </mxCell>
        <mxCell id="NpE67uKgbvUCezic4lN5-106" value="" style="endArrow=none;html=1;rounded=0;entryX=0.5;entryY=1;entryDx=0;entryDy=0;exitX=0.5;exitY=0;exitDx=0;exitDy=0;" edge="1" parent="1" source="NpE67uKgbvUCezic4lN5-102" target="NpE67uKgbvUCezic4lN5-97">
          <mxGeometry width="50" height="50" relative="1" as="geometry">
            <mxPoint x="860" y="1140" as="sourcePoint" />
            <mxPoint x="910" y="1090" as="targetPoint" />
          </mxGeometry>
        </mxCell>
        <mxCell id="NpE67uKgbvUCezic4lN5-107" value="" style="endArrow=none;html=1;rounded=0;entryX=0.75;entryY=1;entryDx=0;entryDy=0;" edge="1" parent="1" source="NpE67uKgbvUCezic4lN5-101" target="NpE67uKgbvUCezic4lN5-97">
          <mxGeometry width="50" height="50" relative="1" as="geometry">
            <mxPoint x="860" y="1140" as="sourcePoint" />
            <mxPoint x="910" y="1090" as="targetPoint" />
          </mxGeometry>
        </mxCell>
        <mxCell id="NpE67uKgbvUCezic4lN5-108" value="" style="endArrow=none;html=1;rounded=0;entryX=1;entryY=1;entryDx=0;entryDy=0;exitX=0;exitY=0.5;exitDx=0;exitDy=0;" edge="1" parent="1" source="NpE67uKgbvUCezic4lN5-100" target="NpE67uKgbvUCezic4lN5-97">
          <mxGeometry width="50" height="50" relative="1" as="geometry">
            <mxPoint x="860" y="1140" as="sourcePoint" />
            <mxPoint x="910" y="1090" as="targetPoint" />
          </mxGeometry>
        </mxCell>
        <mxCell id="NpE67uKgbvUCezic4lN5-109" value="" style="endArrow=none;html=1;rounded=0;entryX=0;entryY=1;entryDx=0;entryDy=0;exitX=1;exitY=0;exitDx=0;exitDy=0;" edge="1" parent="1" source="NpE67uKgbvUCezic4lN5-99" target="NpE67uKgbvUCezic4lN5-97">
          <mxGeometry width="50" height="50" relative="1" as="geometry">
            <mxPoint x="860" y="1140" as="sourcePoint" />
            <mxPoint x="910" y="1090" as="targetPoint" />
          </mxGeometry>
        </mxCell>
        <mxCell id="NpE67uKgbvUCezic4lN5-113" style="edgeStyle=orthogonalEdgeStyle;rounded=0;orthogonalLoop=1;jettySize=auto;html=1;exitX=0.25;exitY=0;exitDx=0;exitDy=0;entryX=0.058;entryY=0.017;entryDx=0;entryDy=0;entryPerimeter=0;" edge="1" parent="1" source="NpE67uKgbvUCezic4lN5-27" target="NpE67uKgbvUCezic4lN5-27">
          <mxGeometry relative="1" as="geometry" />
        </mxCell>
        <mxCell id="NpE67uKgbvUCezic4lN5-114" value="" style="ellipse;whiteSpace=wrap;html=1;" vertex="1" parent="1">
          <mxGeometry x="1110" y="-270" width="120" height="80" as="geometry" />
        </mxCell>
        <mxCell id="NpE67uKgbvUCezic4lN5-115" value="" style="ellipse;whiteSpace=wrap;html=1;" vertex="1" parent="1">
          <mxGeometry x="980" y="-170" width="120" height="80" as="geometry" />
        </mxCell>
        <mxCell id="NpE67uKgbvUCezic4lN5-116" value="" style="endArrow=none;html=1;rounded=0;entryX=0.5;entryY=1;entryDx=0;entryDy=0;exitX=0.5;exitY=0;exitDx=0;exitDy=0;" edge="1" parent="1" source="NpE67uKgbvUCezic4lN5-27" target="NpE67uKgbvUCezic4lN5-114">
          <mxGeometry width="50" height="50" relative="1" as="geometry">
            <mxPoint x="1100" y="50" as="sourcePoint" />
            <mxPoint x="1150" as="targetPoint" />
          </mxGeometry>
        </mxCell>
        <mxCell id="NpE67uKgbvUCezic4lN5-117" value="" style="endArrow=none;html=1;rounded=0;entryX=1;entryY=1;entryDx=0;entryDy=0;exitX=0.25;exitY=0;exitDx=0;exitDy=0;" edge="1" parent="1" source="NpE67uKgbvUCezic4lN5-27" target="NpE67uKgbvUCezic4lN5-115">
          <mxGeometry width="50" height="50" relative="1" as="geometry">
            <mxPoint x="1100" y="50" as="sourcePoint" />
            <mxPoint x="1150" as="targetPoint" />
          </mxGeometry>
        </mxCell>
        <mxCell id="NpE67uKgbvUCezic4lN5-118" value="" style="ellipse;whiteSpace=wrap;html=1;" vertex="1" parent="1">
          <mxGeometry x="1440" y="650" width="160" height="90" as="geometry" />
        </mxCell>
        <mxCell id="NpE67uKgbvUCezic4lN5-119" value="" style="endArrow=none;html=1;rounded=0;entryX=1;entryY=1;entryDx=0;entryDy=0;exitX=0;exitY=0;exitDx=0;exitDy=0;" edge="1" parent="1" source="NpE67uKgbvUCezic4lN5-118" target="NpE67uKgbvUCezic4lN5-50">
          <mxGeometry width="50" height="50" relative="1" as="geometry">
            <mxPoint x="1100" y="550" as="sourcePoint" />
            <mxPoint x="1150" y="500" as="targetPoint" />
          </mxGeometry>
        </mxCell>
        <mxCell id="NpE67uKgbvUCezic4lN5-120" value="PRODUCT&lt;div&gt;&lt;br&gt;&lt;/div&gt;" style="text;html=1;align=center;verticalAlign=middle;whiteSpace=wrap;rounded=0;" vertex="1" parent="1">
          <mxGeometry x="270" y="275" width="60" height="30" as="geometry" />
        </mxCell>
        <mxCell id="NpE67uKgbvUCezic4lN5-121" value="IMAGE" style="text;html=1;align=center;verticalAlign=middle;whiteSpace=wrap;rounded=0;" vertex="1" parent="1">
          <mxGeometry x="60" y="340" width="60" height="30" as="geometry" />
        </mxCell>
        <mxCell id="NpE67uKgbvUCezic4lN5-122" value="ORDER_NAME" style="text;html=1;align=center;verticalAlign=middle;whiteSpace=wrap;rounded=0;" vertex="1" parent="1">
          <mxGeometry x="30" y="215" width="60" height="30" as="geometry" />
        </mxCell>
        <mxCell id="NpE67uKgbvUCezic4lN5-123" value="QUANTITY" style="text;html=1;align=center;verticalAlign=middle;whiteSpace=wrap;rounded=0;" vertex="1" parent="1">
          <mxGeometry x="50" y="110" width="60" height="40" as="geometry" />
        </mxCell>
        <mxCell id="NpE67uKgbvUCezic4lN5-124" value="PRODUCT_NAME" style="text;html=1;align=center;verticalAlign=middle;whiteSpace=wrap;rounded=0;" vertex="1" parent="1">
          <mxGeometry x="170" y="25" width="60" height="30" as="geometry" />
        </mxCell>
        <mxCell id="NpE67uKgbvUCezic4lN5-125" value="PRODUCT_ID" style="text;html=1;align=center;verticalAlign=middle;whiteSpace=wrap;rounded=0;" vertex="1" parent="1">
          <mxGeometry x="320" y="25" width="60" height="30" as="geometry" />
        </mxCell>
        <mxCell id="NpE67uKgbvUCezic4lN5-126" value="PRODUCT&lt;div&gt;DESCRIPTION&lt;/div&gt;&lt;div&gt;&lt;br&gt;&lt;/div&gt;" style="text;html=1;align=center;verticalAlign=middle;whiteSpace=wrap;rounded=0;" vertex="1" parent="1">
          <mxGeometry x="480" y="70" width="60" height="30" as="geometry" />
        </mxCell>
        <mxCell id="NpE67uKgbvUCezic4lN5-128" value="UNIT_PRICE" style="text;html=1;align=center;verticalAlign=middle;whiteSpace=wrap;rounded=0;" vertex="1" parent="1">
          <mxGeometry x="460" y="175" width="60" height="30" as="geometry" />
        </mxCell>
        <mxCell id="NpE67uKgbvUCezic4lN5-129" value="RELATIONSHIP" style="text;html=1;align=center;verticalAlign=middle;whiteSpace=wrap;rounded=0;" vertex="1" parent="1">
          <mxGeometry x="395" y="445" width="60" height="30" as="geometry" />
        </mxCell>
        <mxCell id="NpE67uKgbvUCezic4lN5-130" value="ADD" style="text;html=1;align=center;verticalAlign=middle;whiteSpace=wrap;rounded=0;" vertex="1" parent="1">
          <mxGeometry x="630" y="275" width="60" height="30" as="geometry" />
        </mxCell>
        <mxCell id="NpE67uKgbvUCezic4lN5-131" value="SUPPLIER" style="text;html=1;align=center;verticalAlign=middle;whiteSpace=wrap;rounded=0;" vertex="1" parent="1">
          <mxGeometry x="830" y="275" width="60" height="30" as="geometry" />
        </mxCell>
        <mxCell id="NpE67uKgbvUCezic4lN5-132" value="SUPPLIER_TYPE" style="text;html=1;align=center;verticalAlign=middle;whiteSpace=wrap;rounded=0;" vertex="1" parent="1">
          <mxGeometry x="800" y="35" width="60" height="30" as="geometry" />
        </mxCell>
        <mxCell id="NpE67uKgbvUCezic4lN5-133" value="PASSWORD" style="text;html=1;align=center;verticalAlign=middle;whiteSpace=wrap;rounded=0;" vertex="1" parent="1">
          <mxGeometry x="960" y="100" width="60" height="30" as="geometry" />
        </mxCell>
        <mxCell id="NpE67uKgbvUCezic4lN5-134" value="USER_NAME" style="text;html=1;align=center;verticalAlign=middle;whiteSpace=wrap;rounded=0;" vertex="1" parent="1">
          <mxGeometry x="970" y="-30" width="60" height="30" as="geometry" />
        </mxCell>
        <mxCell id="NpE67uKgbvUCezic4lN5-135" value="PHONE" style="text;html=1;align=center;verticalAlign=middle;whiteSpace=wrap;rounded=0;" vertex="1" parent="1">
          <mxGeometry x="1010" y="-130" width="60" height="30" as="geometry" />
        </mxCell>
        <mxCell id="NpE67uKgbvUCezic4lN5-136" value="EMAIL" style="text;html=1;align=center;verticalAlign=middle;whiteSpace=wrap;rounded=0;" vertex="1" parent="1">
          <mxGeometry x="1120" y="-245" width="60" height="30" as="geometry" />
        </mxCell>
        <mxCell id="NpE67uKgbvUCezic4lN5-137" value="NAME" style="text;html=1;align=center;verticalAlign=middle;whiteSpace=wrap;rounded=0;" vertex="1" parent="1">
          <mxGeometry x="1330" y="-5" width="60" height="30" as="geometry" />
        </mxCell>
        <mxCell id="NpE67uKgbvUCezic4lN5-138" value="F_NAME" style="text;html=1;align=center;verticalAlign=middle;whiteSpace=wrap;rounded=0;" vertex="1" parent="1">
          <mxGeometry x="1330" y="-160" width="60" height="30" as="geometry" />
        </mxCell>
        <mxCell id="NpE67uKgbvUCezic4lN5-139" value="MINIT" style="text;html=1;align=center;verticalAlign=middle;whiteSpace=wrap;rounded=0;" vertex="1" parent="1">
          <mxGeometry x="1500" y="-140" width="60" height="30" as="geometry" />
        </mxCell>
        <mxCell id="NpE67uKgbvUCezic4lN5-140" value="L_NAME" style="text;html=1;align=center;verticalAlign=middle;whiteSpace=wrap;rounded=0;" vertex="1" parent="1">
          <mxGeometry x="1570" y="-20" width="60" height="30" as="geometry" />
        </mxCell>
        <mxCell id="NpE67uKgbvUCezic4lN5-141" value="ADDRESS" style="text;html=1;align=center;verticalAlign=middle;whiteSpace=wrap;rounded=0;" vertex="1" parent="1">
          <mxGeometry x="1500" y="160" width="60" height="30" as="geometry" />
        </mxCell>
        <mxCell id="NpE67uKgbvUCezic4lN5-142" value="CITY" style="text;html=1;align=center;verticalAlign=middle;whiteSpace=wrap;rounded=0;" vertex="1" parent="1">
          <mxGeometry x="1720" y="50" width="60" height="30" as="geometry" />
        </mxCell>
        <mxCell id="NpE67uKgbvUCezic4lN5-143" value="REGION" style="text;html=1;align=center;verticalAlign=middle;whiteSpace=wrap;rounded=0;" vertex="1" parent="1">
          <mxGeometry x="1710" y="180" width="60" height="30" as="geometry" />
        </mxCell>
        <mxCell id="NpE67uKgbvUCezic4lN5-144" value="STREET-NAME" style="text;html=1;align=center;verticalAlign=middle;whiteSpace=wrap;rounded=0;" vertex="1" parent="1">
          <mxGeometry x="1730" y="330" width="60" height="30" as="geometry" />
        </mxCell>
        <mxCell id="NpE67uKgbvUCezic4lN5-145" value="PERSON" style="text;html=1;align=center;verticalAlign=middle;whiteSpace=wrap;rounded=0;" vertex="1" parent="1">
          <mxGeometry x="1290" y="250" width="60" height="30" as="geometry" />
        </mxCell>
        <mxCell id="NpE67uKgbvUCezic4lN5-146" value="CUSTOMER" style="text;html=1;align=center;verticalAlign=middle;whiteSpace=wrap;rounded=0;" vertex="1" parent="1">
          <mxGeometry x="1290" y="525" width="60" height="30" as="geometry" />
        </mxCell>
        <mxCell id="NpE67uKgbvUCezic4lN5-147" value="CREDIT_CARD_NUM" style="text;html=1;align=center;verticalAlign=middle;whiteSpace=wrap;rounded=0;" vertex="1" parent="1">
          <mxGeometry x="1490" y="655" width="60" height="90" as="geometry" />
        </mxCell>
        <mxCell id="NpE67uKgbvUCezic4lN5-148" value="ORDERS" style="text;html=1;align=center;verticalAlign=middle;whiteSpace=wrap;rounded=0;" vertex="1" parent="1">
          <mxGeometry x="1050" y="530" width="60" height="30" as="geometry" />
        </mxCell>
        <mxCell id="NpE67uKgbvUCezic4lN5-149" value="ORDER" style="text;html=1;align=center;verticalAlign=middle;whiteSpace=wrap;rounded=0;" vertex="1" parent="1">
          <mxGeometry x="790" y="525" width="60" height="30" as="geometry" />
        </mxCell>
        <mxCell id="NpE67uKgbvUCezic4lN5-150" value="ORDER_ID" style="text;html=1;align=center;verticalAlign=middle;whiteSpace=wrap;rounded=0;" vertex="1" parent="1">
          <mxGeometry x="590" y="670" width="60" height="30" as="geometry" />
        </mxCell>
        <mxCell id="NpE67uKgbvUCezic4lN5-151" value="PAYMENT_METHOD" style="text;html=1;align=center;verticalAlign=middle;whiteSpace=wrap;rounded=0;" vertex="1" parent="1">
          <mxGeometry x="700" y="785" width="60" height="30" as="geometry" />
        </mxCell>
        <mxCell id="NpE67uKgbvUCezic4lN5-152" value="ORDER_DATE" style="text;html=1;align=center;verticalAlign=middle;whiteSpace=wrap;rounded=0;" vertex="1" parent="1">
          <mxGeometry x="880" y="800" width="60" height="30" as="geometry" />
        </mxCell>
        <mxCell id="NpE67uKgbvUCezic4lN5-153" value="ORDER_STATUS" style="text;html=1;align=center;verticalAlign=middle;whiteSpace=wrap;rounded=0;" vertex="1" parent="1">
          <mxGeometry x="1000" y="700" width="60" height="30" as="geometry" />
        </mxCell>
        <mxCell id="NpE67uKgbvUCezic4lN5-154" value="SHIPMENT_VIA" style="text;html=1;align=center;verticalAlign=middle;whiteSpace=wrap;rounded=0;" vertex="1" parent="1">
          <mxGeometry x="240" y="635" width="60" height="30" as="geometry" />
        </mxCell>
        <mxCell id="NpE67uKgbvUCezic4lN5-155" value="SHIPMENT_VIA" style="text;html=1;align=center;verticalAlign=middle;whiteSpace=wrap;rounded=0;" vertex="1" parent="1">
          <mxGeometry x="-100" y="880" width="60" height="30" as="geometry" />
        </mxCell>
        <mxCell id="NpE67uKgbvUCezic4lN5-156" value="SHIPMENT_ID" style="text;html=1;align=center;verticalAlign=middle;whiteSpace=wrap;rounded=0;" vertex="1" parent="1">
          <mxGeometry x="-120" y="970" width="60" height="30" as="geometry" />
        </mxCell>
        <mxCell id="NpE67uKgbvUCezic4lN5-157" value="" style="ellipse;whiteSpace=wrap;html=1;" vertex="1" parent="1">
          <mxGeometry x="-110" y="1040" width="140" height="80" as="geometry" />
        </mxCell>
        <mxCell id="NpE67uKgbvUCezic4lN5-158" value="" style="endArrow=none;html=1;rounded=0;exitX=1;exitY=0.5;exitDx=0;exitDy=0;entryX=0;entryY=1;entryDx=0;entryDy=0;" edge="1" parent="1" source="NpE67uKgbvUCezic4lN5-157" target="NpE67uKgbvUCezic4lN5-66">
          <mxGeometry width="50" height="50" relative="1" as="geometry">
            <mxPoint x="60" y="1100" as="sourcePoint" />
            <mxPoint x="110" y="1050" as="targetPoint" />
          </mxGeometry>
        </mxCell>
        <mxCell id="NpE67uKgbvUCezic4lN5-159" value="TRANSPORT_TYPE&lt;div&gt;&lt;br&gt;&lt;/div&gt;" style="text;html=1;align=center;verticalAlign=middle;whiteSpace=wrap;rounded=0;" vertex="1" parent="1">
          <mxGeometry x="-70" y="1070" width="60" height="30" as="geometry" />
        </mxCell>
        <mxCell id="NpE67uKgbvUCezic4lN5-160" value="ADDRESS" style="text;html=1;align=center;verticalAlign=middle;whiteSpace=wrap;rounded=0;" vertex="1" parent="1">
          <mxGeometry x="40" y="1165" width="60" height="30" as="geometry" />
        </mxCell>
        <mxCell id="NpE67uKgbvUCezic4lN5-161" value="STREET_NAME" style="text;html=1;align=center;verticalAlign=middle;whiteSpace=wrap;rounded=0;" vertex="1" parent="1">
          <mxGeometry x="-160" y="1160" width="60" height="30" as="geometry" />
        </mxCell>
        <mxCell id="NpE67uKgbvUCezic4lN5-162" value="CITY" style="text;html=1;align=center;verticalAlign=middle;whiteSpace=wrap;rounded=0;" vertex="1" parent="1">
          <mxGeometry x="-110" y="1315" width="60" height="30" as="geometry" />
        </mxCell>
        <mxCell id="NpE67uKgbvUCezic4lN5-163" value="REGION" style="text;html=1;align=center;verticalAlign=middle;whiteSpace=wrap;rounded=0;" vertex="1" parent="1">
          <mxGeometry x="30" y="1355" width="60" height="30" as="geometry" />
        </mxCell>
        <mxCell id="NpE67uKgbvUCezic4lN5-164" value="LOCATION" style="text;html=1;align=center;verticalAlign=middle;whiteSpace=wrap;rounded=0;" vertex="1" parent="1">
          <mxGeometry x="250" y="1185" width="60" height="30" as="geometry" />
        </mxCell>
        <mxCell id="NpE67uKgbvUCezic4lN5-165" value="X-COORDINATE" style="text;html=1;align=center;verticalAlign=middle;whiteSpace=wrap;rounded=0;" vertex="1" parent="1">
          <mxGeometry x="240" y="1365" width="60" height="30" as="geometry" />
        </mxCell>
        <mxCell id="NpE67uKgbvUCezic4lN5-166" value="Y-COORDINATE" style="text;html=1;align=center;verticalAlign=middle;whiteSpace=wrap;rounded=0;" vertex="1" parent="1">
          <mxGeometry x="400" y="1310" width="60" height="30" as="geometry" />
        </mxCell>
        <mxCell id="NpE67uKgbvUCezic4lN5-167" value="SHIPMENT_STATUS" style="text;html=1;align=center;verticalAlign=middle;whiteSpace=wrap;rounded=0;" vertex="1" parent="1">
          <mxGeometry x="420" y="1135" width="60" height="30" as="geometry" />
        </mxCell>
        <mxCell id="NpE67uKgbvUCezic4lN5-168" value="DELIVER" style="text;html=1;align=center;verticalAlign=middle;whiteSpace=wrap;rounded=0;" vertex="1" parent="1">
          <mxGeometry x="645" y="995" width="60" height="30" as="geometry" />
        </mxCell>
        <mxCell id="NpE67uKgbvUCezic4lN5-169" value="DELIVER_COMAPNY" style="text;html=1;align=center;verticalAlign=middle;whiteSpace=wrap;rounded=0;" vertex="1" parent="1">
          <mxGeometry x="1040" y="985" width="60" height="30" as="geometry" />
        </mxCell>
        <mxCell id="NpE67uKgbvUCezic4lN5-170" value="DELIVERY_COM_ID" style="text;html=1;align=center;verticalAlign=middle;whiteSpace=wrap;rounded=0;" vertex="1" parent="1">
          <mxGeometry x="830" y="1100" width="60" height="30" as="geometry" />
        </mxCell>
        <mxCell id="NpE67uKgbvUCezic4lN5-171" value="ADDRESSES" style="text;html=1;align=center;verticalAlign=middle;whiteSpace=wrap;rounded=0;" vertex="1" parent="1">
          <mxGeometry x="920" y="1205" width="60" height="30" as="geometry" />
        </mxCell>
        <mxCell id="NpE67uKgbvUCezic4lN5-172" value="EMAIL" style="text;html=1;align=center;verticalAlign=middle;whiteSpace=wrap;rounded=0;" vertex="1" parent="1">
          <mxGeometry x="1110" y="1220" width="60" height="30" as="geometry" />
        </mxCell>
        <mxCell id="NpE67uKgbvUCezic4lN5-173" value="MOB" style="text;html=1;align=center;verticalAlign=middle;whiteSpace=wrap;rounded=0;" vertex="1" parent="1">
          <mxGeometry x="1290" y="1165" width="60" height="30" as="geometry" />
        </mxCell>
        <mxCell id="NpE67uKgbvUCezic4lN5-174" value="DELIVERY_COM_NAME" style="text;html=1;align=center;verticalAlign=middle;whiteSpace=wrap;rounded=0;" vertex="1" parent="1">
          <mxGeometry x="1360" y="1050" width="60" height="30" as="geometry" />
        </mxCell>
        <mxCell id="NpE67uKgbvUCezic4lN5-175" value="SHIPMENT" style="text;html=1;align=center;verticalAlign=middle;whiteSpace=wrap;rounded=0;" vertex="1" parent="1">
          <mxGeometry x="170" y="955" width="60" height="30" as="geometry" />
        </mxCell>
      </root>
    </mxGraphModel>
  </diagram>
</mxfile>
